<?xml version="1.0" standalone="no"?>
<!DOCTYPE svg PUBLIC "-//W3C//DTD SVG 20010904//EN"
 "http://www.w3.org/TR/2001/REC-SVG-20010904/DTD/svg10.dtd">
<svg version="1.0" xmlns="http://www.w3.org/2000/svg"
 width="1231.000000pt" height="1231.000000pt" viewBox="0 0 1231.000000 1231.000000"
 preserveAspectRatio="xMidYMid meet">
<metadata>
Created by potrace 1.14, written by Peter Selinger 2001-2017
</metadata>
<g transform="translate(0.000000,1231.000000) scale(0.100000,-0.100000)"
fill="#000000" stroke="none">
<path d="M6022 7919 c-86 -43 -164 -191 -171 -327 -1 -7 -4 -11 -9 -8 -12 7
-40 -19 -51 -48 -10 -25 -9 -56 5 -131 9 -48 44 -110 67 -120 21 -10 22 -16
22 -142 0 -125 -1 -133 -24 -157 -32 -34 -101 -59 -236 -86 -131 -26 -188 -49
-262 -106 -48 -37 -58 -42 -81 -33 -27 10 -171 14 -207 5 -11 -2 -42 -9 -69
-16 -94 -21 -304 -120 -327 -153 -4 -5 -32 0 -65 13 -33 12 -104 32 -159 45
-99 24 -500 98 -592 111 -27 3 -51 8 -54 10 -3 2 -64 4 -135 5 -71 0 -173 7
-226 15 -102 14 -143 11 -192 -14 -33 -16 -55 -17 -701 -27 -884 -13 -886 -13
-911 -36 -22 -21 -29 -21 -231 -15 -217 7 -405 14 -583 21 -58 2 -239 7 -402
11 -268 6 -302 5 -343 -10 -74 -29 -95 -80 -55 -136 31 -43 137 -123 215 -163
82 -41 197 -78 315 -102 110 -22 101 -21 203 -36 51 -7 83 -15 75 -20 -7 -4
-76 -28 -153 -55 -217 -73 -235 -83 -235 -129 0 -64 70 -124 233 -200 178 -83
351 -119 544 -113 68 1 123 1 123 -2 0 -2 -19 -22 -43 -45 -98 -92 -115 -132
-81 -197 37 -72 68 -87 234 -113 44 -6 282 -7 312 -1 13 3 41 7 63 10 22 3 60
8 84 12 l43 7 -15 -29 c-23 -44 -46 -131 -53 -200 -5 -54 -3 -64 18 -87 19
-23 33 -28 84 -31 127 -8 375 48 506 114 70 35 76 37 68 17 -13 -30 -27 -147
-25 -203 3 -67 20 -79 108 -78 56 1 89 8 152 33 79 32 176 91 227 139 15 14
30 24 32 21 3 -2 -4 -36 -14 -74 -24 -88 -32 -169 -20 -200 13 -33 56 -59 97
-58 71 2 191 83 328 221 l80 80 0 -106 c0 -94 3 -111 23 -144 34 -55 103 -73
166 -43 18 9 74 54 124 101 l92 86 1 -69 c1 -87 9 -112 40 -135 36 -27 109
-26 153 1 46 29 113 103 166 186 l45 69 5 -79 c6 -90 30 -150 63 -159 72 -19
114 6 222 139 l80 96 20 -65 c34 -110 78 -147 152 -127 65 18 109 59 140 131
55 128 54 128 68 45 15 -87 76 -140 131 -113 46 22 97 150 118 298 4 25 11 77
16 115 6 39 13 86 15 105 3 19 7 71 10 115 2 44 14 118 26 165 20 77 21 102
16 275 -3 104 -9 204 -11 220 -3 17 -7 47 -10 68 -5 51 10 37 62 -63 36 -67
54 -129 78 -268 3 -15 18 -99 34 -187 45 -252 47 -269 44 -362 -4 -110 -10
-151 -38 -258 -38 -147 -66 -300 -72 -396 -3 -57 -8 -122 -9 -144 -2 -22 -4
-61 -4 -87 l-1 -46 -972 -1 c-1246 0 -1460 -2 -1423 -11 44 -11 6035 -11 6035
0 0 10 -101 11 -1397 12 -541 0 -985 4 -988 8 -3 5 -7 55 -10 112 -9 221 -21
303 -81 548 -44 181 -51 352 -19 494 3 12 7 32 9 46 5 29 24 134 31 170 3 14
12 66 21 115 22 131 34 174 62 230 29 59 72 128 76 123 2 -1 -2 -50 -9 -108
-18 -148 -13 -461 7 -520 9 -25 19 -83 22 -130 6 -80 30 -285 41 -340 2 -14 7
-41 10 -60 10 -60 44 -163 65 -198 55 -89 142 -56 171 65 7 26 14 55 16 63 2
8 20 -22 40 -68 43 -100 87 -146 154 -162 42 -10 52 -9 79 6 32 19 80 102 80
138 0 12 4 27 9 35 7 11 10 11 17 -1 9 -15 70 -89 134 -161 59 -67 138 -87
178 -44 31 33 43 73 41 144 -1 35 0 66 3 68 3 3 28 -30 56 -72 59 -90 98 -133
153 -170 70 -46 172 -26 190 38 4 13 7 55 8 94 l1 69 73 -70 c39 -39 89 -83
110 -98 73 -53 158 -44 199 22 20 33 23 50 23 144 l0 108 45 -49 c106 -113
242 -218 319 -246 47 -16 98 -6 126 25 29 32 25 127 -10 244 -8 27 -13 51 -11
54 3 2 15 -6 28 -18 36 -33 154 -109 204 -130 109 -47 239 -59 272 -26 19 19
20 141 2 221 -6 26 -9 50 -6 52 2 3 15 -2 28 -10 99 -63 357 -128 510 -130 79
-1 91 1 111 21 19 19 22 33 20 87 -1 66 -35 199 -53 210 -6 3 -10 13 -10 21 0
8 4 13 8 10 9 -5 93 -19 186 -31 77 -10 244 -7 326 4 126 19 165 36 199 88 17
26 31 58 31 72 0 36 -32 84 -94 145 l-53 51 146 -2 c211 -2 394 40 570 133
142 74 191 120 191 177 0 46 -21 57 -237 132 -86 30 -158 57 -161 60 -3 3 6 6
19 6 36 2 56 5 163 23 294 51 474 126 602 251 69 66 69 125 2 162 -29 16 -60
18 -263 18 -197 -1 -471 -8 -765 -20 -41 -2 -178 -6 -303 -10 -224 -7 -229 -6
-248 14 -14 15 -33 21 -67 22 -26 0 -110 2 -187 4 -77 1 -351 6 -610 10 -743
11 -704 10 -765 32 -56 21 -92 22 -202 5 -31 -4 -112 -9 -180 -11 -206 -3
-834 -115 -966 -172 l-44 -19 -74 45 c-183 112 -405 163 -540 126 -30 -8 -38
-5 -89 34 -68 53 -135 80 -280 110 -135 28 -188 49 -219 86 -22 26 -24 37 -25
153 -2 124 -2 125 24 142 14 9 33 30 41 46 25 48 43 153 34 193 -8 36 -37 68
-52 59 -5 -3 -8 1 -9 8 -9 140 -85 285 -172 327 -59 28 -147 28 -205 0z m191
-26 c80 -41 133 -139 161 -295 6 -36 14 -48 31 -48 23 0 33 -31 32 -90 -2 -61
-33 -132 -73 -165 -21 -18 -24 -31 -29 -122 -4 -59 -2 -118 4 -140 22 -81 118
-136 276 -159 78 -12 185 -52 247 -94 56 -38 68 -42 113 -40 101 6 183 0 258
-20 94 -24 220 -77 284 -120 57 -39 68 -41 113 -24 156 59 769 174 960 179 69
2 170 9 225 16 89 11 106 10 153 -5 28 -10 52 -22 52 -27 0 -5 -21 -9 -47 -10
-75 -1 -110 -7 -187 -34 -97 -34 -119 -66 -64 -92 55 -27 62 -69 10 -54 -16 5
-44 17 -63 27 -27 14 -55 18 -137 17 -137 -2 -220 -27 -305 -92 -114 -87 -224
-132 -437 -177 -40 -9 -90 -24 -110 -34 -64 -32 -103 -39 -146 -24 -21 8 -72
16 -113 20 -102 7 -154 18 -295 60 -167 50 -228 51 -296 3 -70 -48 -137 -261
-205 -649 -30 -169 -37 -320 -21 -430 4 -25 27 -135 51 -245 45 -206 55 -280
60 -447 l3 -98 -197 -1 c-198 -1 -476 -1 -808 0 l-183 1 5 129 c6 140 21 253
55 401 12 52 23 103 25 113 2 10 6 26 9 35 6 18 11 52 25 151 11 89 5 200 -20
361 -16 104 -19 124 -24 140 -2 8 -6 26 -9 40 -2 14 -20 93 -39 175 -50 217
-104 321 -183 348 -57 20 -114 14 -249 -26 -159 -47 -197 -55 -285 -61 -41 -2
-88 -9 -103 -15 -48 -18 -104 -12 -170 18 -35 15 -94 34 -133 41 -84 15 -232
64 -298 97 -27 14 -78 47 -113 74 -86 66 -165 89 -303 91 -92 1 -112 -2 -165
-25 -37 -16 -64 -22 -69 -17 -11 11 18 47 44 55 24 8 31 29 17 49 -19 25 -154
66 -239 73 -43 3 -78 9 -78 14 0 4 23 15 51 24 40 14 67 16 118 10 36 -4 82
-9 101 -11 19 -2 89 -6 155 -8 134 -5 175 -11 545 -80 158 -29 367 -80 433
-105 31 -12 27 -14 140 52 124 72 307 125 417 121 25 -1 65 -3 90 -4 40 -3 54
3 112 43 60 40 137 71 208 83 153 26 243 64 287 121 28 36 28 39 26 161 -2
125 -2 125 -31 152 -40 36 -63 83 -69 141 -7 66 2 95 34 111 20 10 28 22 30
48 5 49 31 138 53 180 61 119 181 166 283 113z m-3009 -1166 c8 -7 38 -15 67
-16 30 -2 65 -4 79 -6 14 -1 33 -3 43 -3 33 -3 17 -20 -25 -27 -24 -4 -99 -19
-168 -35 -69 -16 -143 -31 -165 -34 -79 -13 -161 -25 -200 -31 -22 -3 -65 -10
-95 -15 -30 -5 -75 -12 -100 -15 -25 -3 -72 -10 -105 -15 -33 -5 -82 -11 -108
-14 -26 -3 -94 -13 -150 -23 -135 -23 -192 -21 -312 9 -133 34 -206 69 -268
129 -47 45 -50 50 -35 65 21 22 6 21 653 29 308 3 560 7 562 8 1 1 72 3 158 5
121 2 159 0 169 -11z m6761 -3 c292 -4 544 -8 560 -9 17 -2 38 -3 48 -4 27 -2
21 -46 -10 -76 -69 -66 -176 -112 -339 -146 -107 -22 -113 -22 -185 -7 -41 9
-135 24 -209 33 -74 10 -142 18 -150 20 -8 1 -40 6 -70 10 -30 4 -64 9 -75 11
-10 2 -37 6 -60 9 -118 17 -348 57 -400 70 -33 8 -73 17 -90 20 -16 2 -59 11
-95 18 l-65 14 35 10 c19 6 58 12 87 12 68 2 97 8 102 22 2 7 62 9 195 5 105
-3 430 -8 721 -12z m-9490 -18 c138 -4 297 -9 355 -11 58 -3 175 -7 260 -10
85 -2 240 -8 345 -11 l189 -6 43 -49 c59 -65 164 -113 328 -150 l60 -13 -55
-13 c-59 -14 -380 -67 -470 -78 -30 -4 -62 -9 -70 -10 -26 -5 -113 -17 -150
-21 -19 -2 -46 -6 -60 -9 -62 -12 -156 -19 -285 -19 -155 -1 -388 34 -540 81
-97 30 -246 102 -312 152 -58 45 -93 102 -77 128 14 22 98 48 150 47 21 -1
152 -5 289 -8z m11713 -20 c37 -19 38 -25 15 -73 -21 -45 -96 -101 -208 -157
-133 -65 -269 -105 -420 -121 -27 -3 -58 -8 -67 -11 -9 -3 -27 -8 -40 -11 -36
-9 -288 -12 -344 -3 -27 4 -80 11 -119 15 -38 4 -72 8 -75 10 -3 1 -32 5 -65
9 -33 3 -71 8 -85 11 -14 2 -90 13 -170 25 -80 12 -152 23 -160 25 -8 3 -33 7
-55 10 -63 9 -189 36 -194 41 -2 2 4 4 14 4 24 0 108 25 215 63 71 26 94 40
142 88 l57 57 193 6 c106 3 256 9 333 11 247 10 384 14 640 21 138 3 251 7
252 8 8 7 115 -14 141 -28z m-3223 -49 c96 -25 602 -115 825 -146 41 -6 100
-13 130 -16 144 -13 190 -26 250 -70 61 -45 86 -86 69 -116 -6 -12 -36 -32
-67 -47 -47 -21 -73 -26 -166 -28 -61 -2 -133 1 -161 5 -27 5 -79 12 -115 15
-64 7 -192 47 -590 186 -113 39 -233 81 -268 93 -52 18 -67 28 -84 58 -11 20
-31 43 -44 50 -27 14 -17 36 19 41 34 5 136 -8 202 -25z m-5449 12 c12 -10 9
-15 -18 -35 -17 -13 -37 -36 -43 -51 -13 -31 8 -22 -580 -224 -222 -76 -280
-93 -400 -110 -182 -27 -319 -22 -399 14 -96 44 -96 84 1 158 56 44 115 62
243 74 93 8 317 42 515 76 94 17 195 35 225 40 30 5 69 12 85 15 17 2 73 15
125 28 108 26 224 33 246 15z m264 -88 c0 -13 -112 -93 -408 -290 -149 -100
-296 -193 -325 -206 -63 -29 -235 -65 -309 -65 -29 0 -73 5 -98 11 -119 27
-149 73 -105 159 10 20 31 34 70 49 31 12 60 21 64 21 13 0 423 143 621 217
96 35 192 67 213 69 21 2 48 9 60 15 11 7 32 15 46 20 36 10 171 11 171 0z
m188 -49 c12 -8 22 -20 22 -26 0 -21 -423 -429 -528 -509 -110 -85 -283 -155
-407 -164 -61 -5 -72 -3 -88 15 -10 11 -20 35 -23 53 -10 64 23 96 243 234
123 77 598 414 613 435 16 22 106 2 168 -38z m4492 27 c25 -28 596 -425 676
-470 79 -44 141 -94 160 -131 19 -37 12 -88 -16 -113 -41 -37 -225 2 -378 79
-106 53 -173 111 -490 421 l-164 160 28 21 c15 12 55 31 88 42 59 20 73 18 96
-9z m215 8 c22 -11 56 -21 75 -23 19 -1 116 -32 215 -69 99 -37 304 -110 455
-161 286 -97 305 -107 312 -164 9 -68 -29 -101 -139 -121 -104 -20 -289 8
-398 60 -33 16 -179 108 -325 206 -289 194 -400 274 -400 287 0 5 37 8 83 7
59 -1 93 -7 122 -22z m-4529 -153 c13 -3 24 -9 24 -13 0 -7 -129 -160 -199
-237 -25 -27 -77 -86 -116 -129 -179 -201 -226 -241 -357 -304 -130 -62 -201
-18 -153 95 20 48 41 73 110 132 62 52 76 65 341 318 89 85 176 167 194 183
l33 28 49 -34 c28 -18 61 -36 74 -39z m4123 36 c28 -25 294 -277 401 -380 14
-14 50 -47 80 -74 120 -108 134 -122 151 -161 27 -58 25 -101 -6 -121 -44 -28
-124 -3 -255 81 -64 41 -102 78 -250 244 -41 46 -79 89 -85 95 -139 155 -230
265 -224 269 2 2 22 11 44 21 22 9 51 26 65 36 33 26 39 25 79 -10z m-6251
-43 c-55 -53 -64 -76 -43 -116 30 -60 91 -81 242 -85 60 -1 145 1 188 6 43 4
80 7 81 5 6 -5 -158 -86 -206 -101 -25 -8 -112 -35 -195 -61 -376 -117 -507
-158 -601 -190 -56 -19 -117 -37 -135 -40 -19 -3 -45 -8 -59 -10 -41 -8 -152
-9 -200 -1 -25 4 -58 10 -75 12 -169 26 -431 135 -503 210 -46 48 -41 81 15
112 50 27 178 73 314 113 91 26 121 30 294 44 39 3 97 10 130 15 33 5 78 11
100 14 204 24 641 95 680 110 6 3 12 5 14 5 2 1 -17 -18 -41 -42z m8422 -7
c122 -22 149 -27 210 -35 25 -3 72 -10 105 -15 67 -11 102 -15 190 -25 33 -4
68 -9 78 -11 10 -2 60 -6 110 -9 169 -12 250 -30 492 -115 188 -65 191 -123
14 -222 -204 -113 -487 -177 -680 -153 -68 8 -73 10 -204 54 -66 22 -259 83
-430 136 -170 53 -337 106 -370 117 -58 20 -205 94 -205 104 0 3 4 3 8 0 18
-11 143 -20 260 -19 173 2 234 24 262 97 13 34 -2 64 -57 112 l-36 31 74 -14
c41 -8 121 -23 179 -33z m-6167 -38 l76 -28 -90 -149 c-183 -302 -283 -460
-308 -486 -40 -41 -134 -97 -186 -111 -45 -12 -48 -12 -67 12 -39 48 -9 202
52 270 12 14 61 70 109 125 47 55 88 102 91 105 3 3 59 69 124 148 65 78 119
142 120 142 1 0 37 -13 79 -28z m3956 -177 c95 -113 178 -211 185 -218 111
-114 156 -201 156 -301 0 -89 -48 -105 -152 -51 -117 59 -121 65 -451 610
l-67 109 73 27 c39 15 74 28 78 28 3 1 83 -91 178 -204z m-2888 181 c31 -7 34
-18 54 -189 17 -151 19 -357 5 -424 -24 -111 -117 -187 -181 -147 -20 12 -51
98 -51 144 -1 43 9 259 17 351 2 24 6 89 10 144 4 55 10 104 15 109 9 9 78 24
95 20 6 -1 22 -5 36 -8z m1692 -7 c13 -7 17 -23 18 -62 1 -29 2 -65 4 -82 2
-16 6 -88 10 -160 4 -71 9 -146 10 -165 2 -19 5 -69 5 -110 3 -120 -43 -201
-104 -186 -58 15 -119 97 -130 176 -7 50 -8 260 -1 330 7 70 21 177 30 225 2
11 4 23 4 27 3 23 114 28 154 7z m-1858 -21 c-2 -7 -6 -69 -9 -138 -3 -69 -8
-195 -11 -280 l-7 -155 -43 -90 c-31 -64 -52 -95 -73 -107 -42 -25 -58 -23
-85 15 -42 55 -42 67 -2 302 3 17 9 50 15 75 5 25 16 81 24 125 8 44 18 94 21
110 3 17 9 47 12 68 7 45 10 48 93 68 36 9 66 17 67 18 1 0 0 -5 -2 -11z
m1987 -11 c27 -7 52 -17 57 -22 5 -6 19 -66 31 -135 34 -195 59 -333 65 -360
28 -139 28 -156 0 -209 -41 -81 -109 -56 -167 61 -44 91 -46 100 -54 278 -3
80 -7 172 -9 205 -4 78 -7 178 -6 188 1 10 28 8 83 -6z m-2638 -28 l45 -20
-18 -42 c-17 -39 -45 -99 -123 -267 -116 -247 -126 -266 -184 -325 -84 -86
-147 -129 -191 -129 -51 0 -66 24 -60 96 7 75 44 150 236 467 l154 253 48 -6
c26 -4 68 -16 93 -27z m3497 -221 c193 -320 229 -391 236 -467 5 -50 3 -61
-16 -80 -11 -11 -31 -21 -44 -21 -57 0 -222 146 -274 243 -24 43 -86 179 -224
482 -9 22 -14 43 -10 47 13 14 116 47 148 47 31 1 35 -5 184 -251z m-3025 205
c-4 -16 -8 -39 -11 -53 -3 -14 -14 -70 -25 -125 -22 -113 -22 -115 -50 -280
-12 -66 -26 -132 -32 -148 -14 -36 -120 -133 -152 -139 -21 -4 -34 3 -66 38
-39 43 -44 54 -41 104 2 20 90 313 168 551 l14 46 57 6 c68 7 125 17 131 23
10 10 12 2 7 -23z m2395 0 l56 -6 68 -210 c106 -330 124 -396 114 -432 -12
-41 -82 -107 -106 -98 -33 11 -97 65 -129 107 -26 34 -34 60 -48 141 -8 55
-18 111 -21 125 -3 14 -10 52 -15 85 -16 93 -51 268 -57 289 -5 17 -1 18 38
12 24 -4 69 -9 100 -13z m-2706 -28 c22 1 50 5 62 9 20 6 21 5 13 -21 -4 -15
-44 -147 -89 -293 -89 -296 -99 -324 -133 -361 -51 -58 -131 -87 -157 -56 -18
22 -42 99 -43 138 0 23 17 72 50 140 27 57 71 151 97 209 122 270 111 251 137
242 13 -5 41 -8 63 -7z m2866 0 c20 -3 47 -1 61 4 13 5 29 6 35 3 6 -4 69
-133 140 -286 l130 -279 -9 -51 c-22 -121 -61 -150 -142 -102 -53 31 -89 83
-115 166 -22 74 -63 209 -116 385 -20 66 -40 133 -45 148 -8 24 -7 27 8 23 9
-3 33 -8 53 -11z m-5054 -101 c-21 -126 107 -177 372 -150 24 3 42 3 40 1 -25
-24 -259 -167 -379 -231 -217 -117 -495 -251 -555 -268 -161 -47 -415 -65
-546 -40 -215 41 -250 148 -92 276 27 22 56 45 65 53 30 25 71 42 153 65 307
85 776 244 885 300 30 15 57 28 59 29 2 1 1 -15 -2 -35z m7354 -13 c126 -58
541 -197 834 -278 109 -30 123 -37 203 -102 82 -65 122 -116 122 -153 0 -102
-135 -158 -372 -153 -117 2 -149 6 -280 31 -100 20 -159 44 -408 168 -268 134
-348 178 -509 283 -109 71 -109 71 -68 67 192 -22 324 2 364 63 10 14 16 42
15 69 -1 24 2 44 7 44 4 0 46 -18 92 -39z m-6910 -160 c-42 -58 -28 -136 28
-165 33 -18 78 -15 174 10 33 8 63 14 68 12 16 -6 -541 -467 -660 -547 -122
-81 -384 -161 -508 -155 -18 1 -46 2 -62 3 -50 2 -64 25 -58 95 7 74 33 159
64 205 22 35 36 44 258 161 66 35 161 86 210 113 50 27 113 62 140 77 158 86
265 150 314 187 54 40 58 41 32 4z m6409 -11 c34 -27 156 -99 293 -174 37 -20
82 -45 100 -55 18 -10 139 -75 269 -145 l237 -127 31 -62 c33 -68 57 -187 46
-230 -4 -17 -15 -29 -32 -33 -99 -25 -277 5 -459 78 -132 53 -239 134 -710
533 -96 82 -99 85 -83 85 7 0 30 -5 52 -11 100 -28 141 -31 179 -15 61 25 77
95 39 161 -23 38 -18 38 38 -5z m-6026 -125 c-20 -48 -22 -119 -4 -140 25 -30
55 -35 117 -19 32 8 82 28 110 44 60 34 74 38 47 12 -26 -24 -237 -248 -384
-407 -118 -128 -336 -287 -443 -323 -57 -19 -162 -22 -188 -6 -8 4 -9 30 -5
78 17 180 24 198 115 270 37 30 74 61 82 68 8 7 41 36 74 63 33 28 62 52 65
55 3 3 61 52 130 109 69 57 148 126 177 153 40 38 94 72 120 78 1 0 -5 -16
-13 -35z m5634 15 c19 -11 43 -30 55 -41 12 -12 60 -53 107 -93 47 -39 87 -73
90 -76 3 -3 96 -81 207 -173 111 -93 209 -179 218 -193 27 -42 55 -245 37
-272 -12 -18 -109 -21 -171 -5 -80 20 -211 103 -346 217 -65 56 -86 76 -159
157 -63 69 -315 337 -340 361 -27 25 -13 23 37 -6 148 -86 251 -75 249 26 -1
24 -8 60 -17 81 -18 42 -13 45 33 17z m-5293 -116 c-26 -102 -15 -169 32 -180
38 -10 101 2 155 30 54 28 54 27 -11 -59 -207 -273 -512 -589 -632 -652 -92
-50 -153 -42 -164 21 -8 43 38 239 68 288 12 20 92 110 177 199 279 294 305
321 342 363 21 22 38 45 38 50 0 5 2 7 5 4 3 -3 -1 -31 -10 -64z m5049 -95
c39 -41 145 -153 236 -248 91 -95 175 -189 187 -209 31 -54 76 -242 67 -287
-12 -63 -67 -72 -160 -25 -45 22 -104 73 -245 212 -102 101 -194 194 -205 208
-37 48 -139 175 -144 180 -10 10 -67 85 -85 113 l-18 27 52 -27 c30 -15 75
-28 105 -31 48 -4 55 -2 74 23 29 37 29 88 -2 195 -6 22 -2 20 30 -15 20 -22
69 -74 108 -116z m-3559 17 c-2 -12 -6 -46 -10 -77 -3 -31 -7 -65 -9 -75 -2
-11 -9 -55 -16 -99 -26 -173 -49 -249 -122 -403 -65 -137 -181 -153 -229 -32
-25 63 -17 154 24 269 33 94 68 212 98 331 l11 44 13 -29 c26 -62 71 -81 121
-51 35 21 104 120 104 151 0 16 2 17 9 6 5 -8 8 -24 6 -35z m2010 -79 c21 -30
66 -57 96 -57 26 0 61 30 73 64 10 30 21 9 45 -92 12 -52 45 -161 72 -242 54
-162 56 -182 34 -257 -22 -73 -49 -103 -91 -103 -74 0 -111 38 -170 168 -35
79 -54 141 -75 246 -32 161 -59 355 -51 374 3 8 15 -6 29 -33 13 -26 30 -56
38 -68z m-3193 29 c-7 -107 48 -149 140 -108 24 10 50 25 59 33 8 8 35 32 58
54 l43 40 -48 -90 c-80 -152 -194 -347 -242 -415 -54 -78 -231 -256 -268 -270
-29 -11 -75 -13 -99 -4 -53 21 -77 204 -37 294 16 38 152 217 215 285 10 11
55 68 99 128 44 59 81 107 82 107 0 0 -1 -24 -2 -54z m4342 4 c24 -37 182
-236 289 -364 65 -79 89 -135 89 -211 0 -137 -29 -194 -99 -195 -55 0 -82 17
-188 123 -125 124 -205 244 -375 562 l-54 100 58 -53 c64 -58 94 -76 143 -87
69 -14 102 23 99 113 0 28 2 52 5 52 4 0 18 -18 33 -40z m-3965 -83 c11 -27
23 -36 58 -41 27 -4 94 22 120 46 13 12 23 19 23 15 0 -3 -18 -46 -39 -95
-154 -351 -330 -616 -423 -638 -32 -8 -39 -8 -73 -5 -8 0 -24 16 -35 34 -16
25 -20 47 -19 109 2 73 4 80 44 140 56 83 141 231 222 387 36 69 70 135 76
146 9 18 12 15 23 -25 6 -25 17 -57 23 -73z m3670 -41 c81 -156 215 -388 250
-431 14 -18 19 -43 20 -99 3 -128 -34 -167 -135 -142 -37 10 -119 98 -184 197
-58 89 -250 465 -265 519 l-7 25 23 -21 c42 -37 83 -51 141 -46 21 2 52 61 62
115 4 20 9 37 11 37 2 0 39 -69 84 -154z m-2799 86 c22 -18 74 -7 116 25 l37
27 -6 -84 c-4 -47 -8 -94 -11 -105 -2 -11 -7 -42 -10 -70 -4 -27 -11 -68 -16
-90 -5 -22 -11 -60 -15 -85 -8 -60 -50 -178 -73 -210 -56 -74 -133 6 -135 139
-1 36 11 134 26 216 15 83 30 183 34 223 6 69 7 71 22 50 8 -13 22 -29 31 -36z
m1864 -21 c4 -40 19 -142 34 -225 14 -83 26 -177 25 -209 -1 -85 -45 -167 -89
-167 -54 0 -95 100 -138 335 -3 17 -8 55 -12 85 -3 30 -8 58 -10 61 -2 4 -7
49 -10 100 l-7 93 44 -32 c56 -42 89 -41 126 1 15 19 29 33 29 33 1 -1 5 -34
8 -75z m-2216 32 c-27 -104 -73 -259 -104 -351 -29 -88 -45 -118 -108 -201
-129 -170 -187 -213 -241 -177 -26 17 -37 54 -39 145 -4 106 11 147 159 441
18 36 40 87 50 114 17 44 20 47 32 30 34 -49 77 -84 102 -84 36 0 82 30 122
79 18 23 33 41 35 41 1 0 -2 -17 -8 -37z m2613 -68 c15 -8 39 -15 52 -15 23 0
67 37 100 84 12 17 15 14 32 -30 10 -27 58 -131 107 -232 103 -214 118 -278
94 -410 -15 -79 -77 -92 -146 -29 -57 51 -199 241 -216 289 -12 34 -98 319
-131 433 -3 12 12 0 37 -28 23 -26 55 -54 71 -62z"/>
<path d="M2958 4463 c7 -3 16 -2 19 1 4 3 -2 6 -13 5 -11 0 -14 -3 -6 -6z"/>
<path d="M2994 4463 c8 -8 56 -10 56 -2 0 4 -14 7 -30 7 -17 -1 -28 -3 -26 -5z"/>
<path d="M9150 4466 c0 -2 7 -6 15 -10 8 -3 15 -1 15 4 0 6 -7 10 -15 10 -8 0
-15 -2 -15 -4z"/>
<path d="M9221 4460 c10 -7 49 -2 49 5 0 2 -14 3 -31 3 -17 -1 -25 -4 -18 -8z"/>
</g>
</svg>
