<?xml version="1.0" standalone="no"?>
<!DOCTYPE svg PUBLIC "-//W3C//DTD SVG 20010904//EN"
 "http://www.w3.org/TR/2001/REC-SVG-20010904/DTD/svg10.dtd">
<svg version="1.0" xmlns="http://www.w3.org/2000/svg"
 width="512.000000pt" height="512.000000pt" viewBox="0 0 512.000000 512.000000"
 preserveAspectRatio="xMidYMid meet">
<metadata>
Created by potrace 1.14, written by Peter Selinger 2001-2017
</metadata>
<g transform="translate(0.000000,512.000000) scale(0.100000,-0.100000)"
fill="#000000" stroke="none">
<path d="M2479 4932 c-30 -15 -87 -49 -126 -76 -430 -284 -775 -707 -963
-1181 -50 -127 -104 -295 -117 -365 -2 -14 -10 -52 -17 -85 -8 -33 -17 -85
-21 -115 -4 -30 -9 -63 -11 -73 -2 -11 -6 -63 -10 -118 -4 -54 -12 -105 -18
-112 -6 -8 -54 -43 -106 -79 -643 -444 -1050 -1183 -1086 -1971 -9 -198 2
-218 151 -296 292 -154 601 -247 940 -287 87 -10 378 -12 465 -3 129 12 194
20 210 24 8 3 32 7 53 11 188 29 569 159 708 241 25 15 31 13 133 -36 59 -28
110 -51 113 -51 3 0 19 -7 36 -15 119 -55 424 -136 632 -166 174 -25 527 -18
729 15 108 18 300 63 327 77 9 4 27 10 40 13 96 17 478 193 531 243 43 41 51
79 44 222 -36 786 -431 1514 -1066 1965 -152 107 -137 87 -145 201 -8 127 -10
147 -36 280 -101 534 -355 1003 -749 1380 -202 193 -480 384 -561 385 -14 0
-50 -13 -80 -28z m142 -339 c145 -98 337 -268 444 -393 200 -231 362 -526 449
-813 49 -161 96 -407 78 -407 -5 0 -46 15 -93 34 -46 19 -123 46 -170 61 l-87
27 -11 59 c-35 176 -157 457 -276 633 -78 117 -141 194 -240 293 -126 125
-186 124 -316 -6 -242 -242 -424 -567 -508 -906 -10 -44 -22 -100 -26 -125 -4
-25 -8 -56 -10 -70 -17 -115 -22 -302 -10 -425 36 -390 182 -748 427 -1051
l66 -82 -92 -60 c-50 -33 -115 -72 -143 -86 l-53 -26 -61 77 c-306 384 -483
894 -483 1388 0 212 22 376 76 585 78 302 225 593 427 845 56 69 215 233 281
290 80 69 255 195 270 195 4 0 32 -16 61 -37z m-4 -845 c126 -156 235 -358
288 -535 l14 -45 -42 6 c-174 25 -457 25 -639 0 -21 -3 -38 -2 -38 1 0 37 152
375 172 383 4 2 8 8 8 14 0 18 165 238 179 238 4 0 30 -28 58 -62z m128 -862
c44 -4 91 -8 105 -11 14 -2 41 -7 60 -9 198 -27 432 -102 645 -206 632 -307
1080 -890 1220 -1585 22 -110 27 -149 40 -301 l4 -51 -76 -37 c-173 -85 -363
-147 -565 -186 -48 -9 -78 -14 -203 -29 -75 -9 -400 -7 -475 4 -193 27 -421
86 -567 147 l-73 30 88 68 c48 37 111 91 141 119 30 28 57 51 61 51 4 0 58
-13 121 -30 63 -16 137 -32 164 -36 28 -3 52 -8 55 -9 27 -16 360 -24 475 -11
153 17 355 64 408 95 16 9 38 31 49 49 30 49 27 96 -16 237 -196 655 -720
1154 -1386 1320 -263 66 -586 75 -813 24 -26 -6 -50 -9 -52 -7 -15 14 -22 315
-8 329 13 13 130 29 258 35 66 4 121 7 122 8 4 3 127 -2 218 -8z m-1511 -541
c19 -124 24 -147 40 -211 l13 -52 -66 -64 c-252 -244 -419 -523 -515 -861 -35
-120 -37 -150 -14 -197 25 -49 62 -72 158 -98 171 -47 317 -65 505 -65 101 -1
273 11 285 18 3 2 24 6 46 9 428 64 878 329 1167 686 130 161 262 396 318 565
7 22 16 44 20 49 9 10 148 -57 236 -113 l62 -40 -27 -68 c-38 -99 -150 -315
-213 -413 -217 -332 -527 -609 -885 -788 -330 -166 -668 -242 -1044 -237 -182
3 -196 5 -408 40 -12 2 -30 6 -40 9 -9 3 -30 7 -45 10 -90 16 -320 98 -450
161 l-75 37 3 62 c3 54 12 128 30 251 11 70 55 237 87 330 114 330 297 625
540 866 84 84 247 223 254 217 2 -2 10 -48 18 -103z m1566 -102 c52 -8 96 -16
98 -18 15 -15 -98 -265 -171 -378 -46 -71 -158 -216 -167 -216 -10 0 -96 111
-152 195 -80 121 -203 383 -186 399 2 2 42 10 88 18 114 18 372 18 490 0z
m-1390 -517 c0 -19 114 -245 170 -336 49 -81 94 -146 147 -217 l24 -31 -53
-11 c-142 -28 -218 -35 -368 -34 -106 1 -304 23 -316 36 -6 5 59 164 101 247
58 115 139 233 244 352 19 22 27 25 38 17 7 -6 13 -17 13 -23z m2398 -49 c79
-97 142 -192 196 -297 44 -85 109 -241 103 -247 -6 -6 -110 -23 -176 -30 -140
-13 -394 -3 -450 18 -14 6 -27 10 -29 9 -1 -1 -20 1 -42 5 l-40 7 20 26 c37
48 170 249 170 257 0 4 9 19 20 34 21 31 84 153 124 244 14 32 30 56 35 52 6
-3 37 -38 69 -78z"/>
</g>
</svg>
