<svg version="1.0" xmlns="http://www.w3.org/2000/svg" preserveAspectRatio="xMidYMid meet" viewBox="323.8 168.93 351.93 664.18">

<g transform="translate(0.000000,1080.000000) scale(0.100000,-0.100000)" fill="#ffffff" stroke="none">
<path d="M4980 9090 c0 -33 -78 -266 -132 -390 -54 -126 -147 -306 -203 -395 -20 -31 -34 -59 -31 -62 9 -10 140 36 179 63 21 14 42 23 45 19 4 -4 7 -192 7 -418 -1 -444 -11 -596 -60 -862 -34 -184 -68 -294 -129 -420 -65 -132 -134 -211 -223 -253 -51 -24 -70 -27 -153 -26 -73 0 -105 5 -140 21 -106 48 -150 113 -150 220 0 90 16 144 83 289 31 66 65 154 77 195 26 96 50 277 50 386 0 77 2 84 18 78 79 -35 197 -76 233 -81 l44 -7 -38 42 c-106 118 -256 395 -344 633 -25 70 -47 127 -49 126 -1 -2 -27 -68 -59 -148 -76 -196 -191 -426 -274 -551 -38 -57 -67 -106 -65 -108 7 -8 140 32 207 62 37 16 69 28 71 26 10 -11 -18 -164 -45 -244 -16 -49 -81 -191 -143 -315 -126 -251 -158 -331 -175 -438 -39 -253 114 -533 353 -646 117 -55 243 -68 399 -41 198 34 367 108 472 206 56 53 64 58 55 33 -37 -96 -143 -214 -248 -274 -34 -19 -62 -38 -62 -41 0 -3 11 -11 24 -17 39 -17 95 -72 122 -118 l25 -43 -31 -39 c-67 -84 -95 -217 -65 -318 9 -32 23 -71 31 -85 l13 -27 52 15 c36 11 80 14 145 11 111 -5 144 -22 60 -31 -233 -24 -336 -309 -177 -489 l32 -37 -1 -278 c0 -153 -1 -281 0 -285 0 -10 155 46 187 67 42 28 24 -3 -29 -48 -69 -59 -259 -177 -373 -232 -353 -170 -746 -196 -1198 -81 l-129 33 54 -54 c172 -176 422 -304 682 -349 134 -24 367 -14 501 20 176 44 322 113 452 213 l72 55 87 -65 c149 -112 329 -189 521 -222 173 -30 429 -15 578 34 47 16 52 19 20 14 -73 -12 -289 -6 -381 10 -105 19 -237 62 -309 101 -27 15 -39 24 -25 21 184 -43 250 -55 364 -66 104 -9 163 -9 257 0 200 19 383 62 452 107 48 31 200 165 194 171 -3 2 -56 -10 -118 -26 -523 -140 -974 -86 -1366 161 l-63 40 -1 86 c-1 48 -4 186 -8 307 l-6 220 -49 24 c-26 13 -70 26 -97 29 -102 10 -38 32 92 32 75 0 78 1 99 29 32 46 50 108 50 172 0 62 -27 148 -56 180 -15 17 -14 21 20 61 20 23 49 67 64 98 24 49 27 66 27 155 0 90 -3 105 -28 153 -60 114 -149 181 -271 206 l-61 13 54 13 c66 16 191 9 245 -14 40 -16 40 -16 70 13 73 70 198 105 432 119 123 8 162 14 213 35 192 78 322 219 382 417 18 57 23 99 23 175 0 131 -29 215 -168 493 -124 249 -151 311 -176 417 -19 76 -26 165 -15 165 3 0 23 -9 45 -20 41 -21 209 -72 221 -68 5 2 -19 44 -52 93 -78 119 -203 366 -273 541 -31 77 -56 146 -56 152 0 6 -4 13 -9 16 -5 3 -25 -43 -46 -102 -88 -249 -220 -498 -339 -641 -20 -24 -34 -46 -31 -49 8 -8 135 29 204 59 35 16 65 29 67 29 2 0 4 -31 4 -70 0 -191 42 -401 111 -553 78 -172 90 -208 98 -280 10 -97 -2 -146 -49 -200 -63 -71 -121 -92 -260 -92 -93 0 -129 5 -190 23 -155 49 -282 131 -395 255 -35 39 -63 72 -61 75 2 2 26 -12 53 -31 75 -54 292 -154 281 -130 -2 5 -17 35 -34 68 -91 173 -152 442 -186 815 -13 144 -17 836 -5 883 l7 27 40 -25 c43 -27 167 -71 176 -62 3 3 -20 47 -51 99 -118 198 -241 479 -296 680 -23 84 -39 112 -39 68z m-11 -1037 c-1 -484 -5 -777 -10 -718 -12 154 -29 780 -29 1070 l-1 260 -21 -50 c-28 -64 -111 -196 -140 -221 l-22 -19 23 35 c42 65 119 235 156 348 21 61 39 112 41 112 2 0 3 -368 3 -817z m-925 -30 c-26 -120 -87 -255 -166 -370 -53 -76 -100 -126 -60 -63 65 102 179 337 215 443 10 27 18 20 11 -10z m1931 -48 c37 -94 136 -292 181 -363 51 -79 8 -39 -54 52 -79 114 -139 247 -157 351 -10 53 -3 44 30 -40z m-2254 -1655 c25 -100 65 -187 120 -259 52 -69 10 -43 -50 31 -85 105 -121 210 -121 354 0 132 13 159 22 49 5 -49 18 -128 29 -175z m2598 130 c2 -156 -44 -273 -146 -379 -60 -62 -62 -63 -28 -17 84 114 129 240 147 414 14 128 25 120 27 -18z"/>
<path d="M4966 3421 c-44 -45 -173 -135 -266 -185 -282 -150 -615 -175 -990 -77 -41 11 -76 19 -78 17 -7 -8 141 -133 198 -167 50 -31 75 -39 138 -45 192 -20 435 -1 611 47 40 11 75 18 77 16 6 -6 -123 -63 -196 -87 -78 -25 -215 -50 -279 -50 -39 -1 -43 -2 -27 -12 11 -6 83 -13 160 -16 114 -3 159 0 236 16 156 32 300 98 403 184 l48 40 38 -35 c94 -85 264 -162 427 -193 129 -24 328 -15 447 20 97 29 203 79 288 137 60 40 172 139 166 145 -2 3 -46 -7 -98 -21 -196 -52 -412 -68 -585 -44 -220 30 -466 144 -630 293 -29 25 -54 46 -56 46 -2 0 -17 -13 -32 -29z"/>
<path d="M4954 2866 c-112 -95 -261 -169 -407 -201 -113 -25 -336 -17 -464 17 -51 13 -93 21 -93 17 0 -19 133 -114 215 -155 232 -115 504 -97 721 48 l74 50 49 -37 c112 -82 279 -136 418 -134 l68 0 -80 24 c-86 25 -221 82 -213 90 2 3 27 -2 54 -9 86 -25 196 -45 314 -56 l115 -11 81 40 c48 24 106 64 145 100 l64 59 -95 -25 c-118 -31 -334 -43 -444 -23 -146 26 -278 86 -404 185 -39 30 -72 55 -74 55 -3 0 -22 -15 -44 -34z"/>
</g>
</svg>