<svg xmlns="http://www.w3.org/2000/svg" width="1231" height="357"><g fill="#fff" fill-rule="evenodd"><path d="M268.101 347.869h689.753"/><path d="M268.101 347.869l29.638-.382 34.016-.38 20.923-.233 23.197-.005h237.102H850.08l23.197.019 20.923.243 34.017.394 29.637.344-29.637.344-34.017.394-20.923.244-23.197.018H612.977 375.875l-23.197-.005-84.577-.995"/><path d="M1219.536 122.875c-4.801-2.536-7.792-2.695-12.59-2.96-10.832-.605-133.809 4.486-140.148 4.218l-4.894-.235s-.649-2.502-3.18-3.392c-1.17-.411-1.657-.511-2.504-.564-4.047-.257-134.54-2.08-146.203-2.348-3.68-.082-7.369.28-10.786-1.676-4.76-2.73-10.122-3.143-15.193-2.014-8.533 1.892-17.086 2.02-25.718 2.075-4.436.031-8.893-.349-13.339.483-15.911 2.973-75.664 11.664-86.56 18.877-9.055-8.064-41.989-24.269-63.564-16.728-1.088.26-2.007-.266-2.794-.923-1.271-1.054-2.57-2.103-3.696-3.307-11.494-9.647-27.082-10.211-34.598-12.062-3.835-.946-7.63-1.931-11.121-3.689-3.26-1.645-5.751-4.117-6.285-8.098-.774-5.796-.882-14.17-.333-20.02.305-3.299-.47-4.368 3.794-5.683.923-.287 1.239-1.544 1.805-2.389 3.3-4.93 3.907-10.065 4.734-15.991 1.065-4.517-1.719-12.087-6.466-10.668-.493-1.848-.244-4.746-.529-6.38-1.573-9.023-5.367-16.63-11.228-23.267-4.115-4.657-9.927-6.535-15.67-6.373v2.641c4.967.013 10.195 1.773 14.386 6.203 6.491 6.674 8.566 14.878 10.241 23.692.403 2.12.555 3.912.939 6.086 2.034-.521 5.782 1.194 5.855 4.541.093 4.383.382 8.11-1.143 12.31-.778 2.143-2.159 4.025-3.204 6.058-.468.914-.873 2.064-1.795 2.402-4.542 1.678-3.326 3.27-3.672 6.693-.471 4.655-1.186 11.975-.881 16.647.39 5.994 3.584 10.47 8.76 13.509 5.357 3.144 11.301 4.603 17.296 5.673 6.862 1.221 19.088 2.472 30.044 11.969 1.922 1.5 3.813 2.485 6.566 2.182 20.953-4.421 46.367 6.566 60.426 16.408.975 1.002 2.306 1.067 3.564.579 21.934-8.223 87.589-18.883 92.694-19.162 3.318-.18 6.819.657 10.203.319 7.681-.777 15.465-.689 23.031-2.511 4.013-.964 7.623-.053 11.407 1.573 1.802.775 5.751 1.685 5.292 2.596-.443.893-5.546 1.135-8.292 1.135-7.668.004-14.599 3.032-21.67 5.424-1.718.582-3.133 1.712-3.012 3.922.069 1.225.226 2.16 1.66 2.601 1.953.606 3.56 1.913 5.124 3.207.609.502 1.046 1.224.758 2.02-.359.992-1.258 1.193-2.211 1.065a15.09 15.09 0 0 1-5.726-2.001c-5.784-3.429-12.002-3.715-18.436-2.612-1.121.192-2.295.269-3.424.173-5.333-.433-18.361 2.485-25.916 9.933-3.919 3.319-8.107 5.99-12.899 7.771-.953.353-11.864 5.846-30.456 9.004-3.627.557-6.995 1.855-10.317 3.645-5.368 2.89-11.153 4.387-17.097 1.19-1.635-.877-3.428-.911-5.209-.961-8.048-.223-16.164-1.08-23.678-3.556-5.387-1.779-10.966-2.981-16.343-4.826-7.245-2.481-15.244-3.156-22.32 1.647-4.493 3.48-7.775 12.794-9.86 16.816-.839 1.627-2.129 8.522-2.553 10.48-1.787 8.322-10.352 39.001-11.197 66.781-.182 6.105 1.011 12.034 1.786 18.038 1.013 7.862 7.875 31.319 9.356 46.485 1.741 17.831 1.092 28.565 1.092 28.565l-59.169.341v2.297l62.152-.362s.534-12.818-1.801-37.429c-1.075-11.32-9.401-41.335-9.767-45.711-.528-6.268-.978-12.858-.783-19.159.21-6.861 8.998-52.942 10.452-60.27.717-3.614 1.514-7.158 3.372-10.459 1.863-3.307 6.631-13.094 8.696-13.75-.094.874-7.103 50.834.792 66.411.553 1.22 1.087 2.628.768 4.069-1.2 5.412 4.92 47.319 6.676 52.468 1.96 5.756 3.218 12.034 7.687 16.505 2.504 2.507 7.296 2.214 9.605-.335 3.079-3.408 4.917-5.301 6.39-17.581 1.251 1.506 4.462 8.688 5.454 11.704 4.278 13.012 17.031 14.625 19.615 13.511 9.074-2.774 10.194-15.675 11.183-19.991l10.518 12.607c2.998 3.847 6.004 7.781 10.232 10.259 3.032 1.778 10.13 3.22 13.139-1.53 3.434-5.417 3.127-9.47 2.759-15.843-.104-1.81-.016-3.636-.016-6.052 5.053 4.889 10.345 21.004 25.38 27.917 2.368 1.091 8.054.644 10.383-.412 3.206-1.459 4.758-3.982 5.158-7.644.539-4.93.446-9.173.785-14.278 1.461 1.124 15.395 17.206 22.863 19.849 4.22 1.911 10.567-.514 11.658-1.239 6.146-4.113 5.948-12.599 6.162-20.895.075-2.951-1.466-6.099-1.962-9.635 3.658 3.859 24.2 27.335 39.987 31.725 4.716 1.308 11.675-1.812 12.355-6.421.731-4.993-.208-9.811-1.321-14.97-.968-4.459-2.115-8.533-3.615-13.184 11.907 10.822 29.207 21.851 44.873 20.91 8.803-.526 8.032-4.03 8.003-9.87-.033-5.816-.379-10.814-1.9-16.818-.354-1.414-.621-2.392-1.148-4.195 17.878 12.611 51.989 17.446 62.158 15.454 6.809-1.332 6.773-8.203 6.209-11.405-1.192-6.731-1.914-15.478-7.794-23.467 37.492 8.068 61.359 1.469 64.761.492 5.358-1.535 8.509-5.486 10.518-10.004 1.155-2.592 1.28-5.754-.094-8.359-1.56-2.956-11.583-13.406-14.683-15.29 1.91 0 2.952.176 4.037.3 45.108 5.115 79.638-18.105 84.961-23.79 2.991-3.203 3.463-9.405.562-11.687-3.663-2.874-33.406-11.903-39.189-14.47l14.336-2c35.84-5.809 49.982-11.796 66.712-26.567 1.661-1.614 2.696-3.731 3.748-5.647 1.9-3.463-.415-7.464-3.96-9.34h0zm-329.691.425c3.955.005 7.832-.578 11.746-.904 1.461-.118 3.097.351 3.512-1.92.226-1.226 1.473-.62 2.282-.582 21.075.968 148.079 2.35 148.582 2.429 3.838.609 4.734 3.098 1.852 6.808-7.226 7.95-18.249 13.055-38.415 16.656-1.348.241-2.696.677-4.028 1.086-2.12.651-4.163.652-6.34-.008-5.959-1.808-12.107-2.531-18.305-3.15-3.878-.388-66.095-9.098-79.335-12.15l-12.788-2.916c-5.236-1.194-10.541-2.108-16.457-3.268 2.86-1.146 5.244-2.088 7.694-2.081h0zm-17.454 7.513c-.082-.07-.089-.228-.318-.878 2.286-2.303 5.273-2.48 8.099-2.335 6.613.34 13.122 1.599 19.476 3.422 7.17 2.064 79.855 14.793 92.216 15.288 6.336.255 20.08 2.947 20.889 3.87 4.362 3.536 11.511 7.719 12.039 12.39.76 6.72-17.391 13.632-42.685 9.199-5.886-1.036-11.911-.951-17.711-2.451-3.162-.82-71.853-24.353-83.205-28.746-.713-.276-1.838-.477-1.801-1.202.249-5.034-4.195-6.104-6.999-8.557h0zm-7.642 7.088c1.447.374 2.776 1.24 4.123 1.941 2.174 1.122 4.364 2.111 6.889 1.362.507-.147.972-.273 1.456-.024 8.681 4.464 80.605 29.128 88.694 31.262 2.562.676 4.316 1.804 5.55 4.02 1.456 2.605 2.335 5.376 2.038 8.357-.245 2.429-1.689 4.146-3.876 5.284-3.996 2.078-8.247 3.036-12.711 3.618-9.143 1.193-17.846-.751-26.683-2.664-9.248-2.004-16.983-6.613-24.514-11.983-3.067-2.181-44.023-29.027-49.466-33.383-3.215-2.573-7.092-4.791-10.43-8.461 6.893-.448 12.958-.871 18.93.671h0zm-21.503-.483c7.819 7.902 59.44 42.799 65.808 47.131 3.38 2.295 17.389 7.895 20.929 16.033.674 1.218 1.13 2.543 1.063 4.002-.218 4.351-2.731 8.866-7.315 8.732-11.175-.318-21.663-3.873-32.165-8.742-11.215-5.202-19.486-13.562-28.274-21.571-6.555-5.973-37.909-36.395-38.268-37.496 2.207-3.19 11.606-7.803 18.222-8.089h0zm-20.352 9.707c2.343 1.853 45.348 43.164 53.367 50.432 3.09 2.801 6.699 4.969 9.517 8.126 4.063 4.543 7.135 10.246 6.303 16.201-.306 2.18-4.221 4.356-6.666 4.263-5.312-.204-9.515-2.796-14.2-5.153-4.743-2.38-9.406-5.527-13.721-8.672-1.991-1.451-3.254-3.515-5.018-5.155-9.795-10.773-40.209-44.439-44.965-51.45 9.138-3.18 11.968-6.141 15.383-8.592h0zm-17.248 9.31c3.776 5.579 41.747 50.15 47.081 55.576 4.204 7.696 9.186 29.771-4.441 25.517-8.098-2.53-14.099-7.089-19.978-12.724-1.551-1.485-37.942-61.126-38.544-62.617 4.417-1.002 10.296-2.888 15.882-5.752h0zm-18.869 6.303c.908 1.409 21.506 35.761 31.555 52.335 1.837 3.03 2.893 6.229 4.781 9.241 8.707 20.746-2.28 23.899-10.695 17.913-6.697-4.764-12.531-10.569-17.704-17.069-1.063-1.329-1.757-2.776-2.527-4.213-4.914-9.186-24.33-52.808-24.33-52.808s8.124-5.113 18.92-5.399h0zm-21.586 6.331l25.191 54.214c2.189 3.528.659 6.878-.096 10.925-2.352 12.663-7.884 11.105-12.729 8.336-6.583-3.767-9.96-8.463-12.177-16.267-2.176-7.663-17.102-56.064-17.412-57.711 5.486 2.453 10.595 2.835 17.223.503h0zm-20.381-.926c1.148 2.691 16.775 53.365 17.336 54.503 1.436 5.802 2.529 9.11-.847 13.384-1.554 1.966-3.034 3.902-5.13 5.474-2.052 1.54-3.587 1.393-5.527.301-2.681-1.508-8.111-4.9-13.373-12.829-.798-.602-1.062-1.703-1.205-2.741-2.215-16.086-10.204-56.238-11.186-60.924 6.39 1.219 13.818 2.925 19.932 2.832h0zm-22.43-3.28l11.349 61.783c.489 4.298-.589 7.92-3.667 12.14-1.708 2.343-5.389 2.534-7.133 1.463-3.789-2.322-4.8-3.076-8.283-10.318-1.854-3.853-4.099-7.669-4.5-12.1-.31-3.395-2.648-56.646-2.648-56.646l14.882 3.678h0zm-37.732 55.354c-3.421-20.779 2.568-57.152 3.216-59.843 8.359-4.539 16.91.214 16.91.214l3.685 60.927c-.022.578-.433 3.735-.66 4.371-2.101 5.893-3.63 11.371-8.982 11.019-3.25-.213-6.186-2.336-8.377-4.776-3.341-4.396-4.905-6.497-5.792-11.912h0zm28.822 70.385c-3.665 8.829-5.257 9.411-8.362 9.842-3.745.521-7.594-8.695-9.731-15.315-2.443-7.58-7.727-41.144-7.505-48.268.026-.782.149-2.886.277-4.35 8.314 7.93 14.238 9.811 19.618-1.145.482 3.057.298 5.315.418 7.388.216 3.697 5.136 34.98 6.401 39.556.882 3.197-.24 9.03-1.116 12.292h0zm28.807 15.292c-2.606 1.051-10.338 1.549-16.496-8.684-1.556-4.209-6.088-14.234-6.673-15.245-3.523-6.086-9.627-46.989-9.81-52.834-.032-1.08.278-3.557.765-4.74.835 1.327 1.307 4.085 1.878 5.128 4.751 8.658 4.524 8.723 10.381 12.769 3.065 2.114 6.377.245 7.647-.764 2.398-1.912 3.707-5.31 4.935-8.056.382 1.336.465 1.813.573 2.347 3.036 14.58 7.69 28.688 12.446 42.767.585 1.729 1.517 3.179 1.902 4.854 1.003 4.395-.956 19.777-7.548 22.458h0zm42.837 2.449c-2.899 3.805-7.258 2.769-9.522 1.46-2.855-1.656-5.234-4.034-7.43-6.607-5.79-6.796-10.66-13.722-15.783-20.425-.302-.395-.518-.879-.705-1.35-3.179-7.895-11.728-37.121-13.516-43.605-.424-1.532-1.115-4.647-1.473-6.196 1.925 2.661 4.005 5.288 5.691 7.146 2.676 2.956 5.677 5.423 9.767 6.282 1.099.227 1.869.089 2.845-.402 3.855-1.954 6.605-5.456 9.743-10.249.834 2.58 3.669 10.904 5.145 13.452 3.186 5.499 6.035 11.292 8.471 17.147 1.809 4.358 3.638 8.188 6.142 12.537 2.076 3.152 2.161 6.249 2.674 10.33 1.119 8.952.002 17.786-2.049 20.48h0zm43.82-1.8c-.937 6.735-7.152 10.681-15.375 6.176-10.117-5.538-19.035-23.036-21.849-27.254-3.212-4.819-11.466-21.26-12.885-24.413-2.9-6.466-9.771-21.291-9.771-22.284 2.627 2.558 4.3 5.184 9.758 6.863 8.034 2.467 10.533.152 12.862-7.986.749-2.616 1.117-4.873 1.938-7.622 1.887 3.349 3.175 6.1 4.628 9.042 6.737 13.665 14.099 27.101 22.052 40.12 2.162 3.548 3.982 7.158 6.779 10.261 1.543 1.708 1.914 3.238 1.529 5.481.45 4.212.912 7.469.334 11.616h0zm40.498-14.409c-.365 9.666-1.774 12.916-2.439 14.425-1.808 4.133-6.796 6.404-14.23 3.362-4.542-2.115-14.266-13.723-17.632-16.399-10.097-8.021-36.804-59.278-37.498-61.082.672-.259 9.665 10.172 15.301 12.556 11.179 4.726 13.759-.738 14.491-4.683.782-4.231.449-7.835-.286-12.262 1.528 1.402 2.912 3.482 3.534 4.587 4.804 8.554 34.436 42.491 35.744 45.802 1.617 4.085 3.411 9.029 3.015 13.694h0zm50.067 2.628c.835 4.082 2.416 8.835.587 13.016-2.859 6.543-11.605 3.085-19.298-1.267-3.848-2.172-35.265-33.309-36.514-34.741-2.751-3.143-19.287-23.378-24.597-30.51-1.414-1.901-3.876-4.863-4.958-7.539 2.61 1.145 4.705 3.002 6.397 3.712 27.951 11.75 16.94-17.08 15.162-23.458 2.515 2.911 4.003 4.733 5.907 7.051 4.348 5.293 35.138 36.747 45.246 48.105.672.753 6.527 4.146 9.343 14.945.841 3.585 1.99 7.085 2.725 10.686h0zm48.644-3.101c.27 4.861-3.19 4.772-7.037 4.912-11.16.4-16.043-.734-35.364-14.76-5.529-3.604-10.487-8.386-15.542-12.611-4.07-3.401-7.335-7.631-10.892-11.593-8.167-9.097-33.243-34.986-36.345-38.799 2.912 1.148 4.3 2.545 5.591 3.246 5.333 2.877 10.41 5.117 16.274 6.253 4.863.939 9.53-2.081 9.51-7.025-.015-4.304-1.059-9.152-3.789-13.345 4.139.681 7.293 2.536 9.938 5.323 5 5.251 10.799 9.574 16.367 14.174l43.684 36.485c2.7 1.836 5.219 7.199 5.747 11.013.305 2.208 1.601 12.084 1.858 16.727h0zm60.788-35.263c3.951 10.64 4.254 18.725 4.131 20.114-.333 3.635-1.383 5.018-5.043 5.602-9.427 1.495-26.652.141-52.076-11.164-1.841-.787-3.473-2.07-5.182-3.161-12.917-8.225-54.736-44.231-64.148-52.203-1.431-1.213-2.807-2.487-4.818-4.268 7.629 1.072 14.126 4.07 20.97 4.373 2.535.117 5.732-1.113 7.592-2.528 2.392-1.816 3.685-7.431 2.531-11.028-.607-1.9-2.178-5.232-4.41-7.523 3.185 1.096 6.841 4.72 9.017 6.231 10.753 7.476 79.219 43.873 85.11 46.821 1.929.966 5.519 6.545 6.326 8.734h0zm71.086-25.436c2.113 3.806 1.418 7.827-1.229 11.301-4.949 6.49-28.596 13.704-70.902 3.53-14.259-4.321-66.954-32.555-72.294-35.928-6.976-4.403-21.72-14.261-22.413-14.905 1.384.025 22.578 3.752 33.469-.692 6.392-2.61 9.265-5.613 8.737-12.52-.095-1.23-.772-3.291-.982-4.78 3.859 1.719 7.667 3.298 10.773 4.945 5.717 3.035 11.69 4.802 17.593 7.022 12.119 4.56 65.558 21.169 72.173 22.453 7.178 1.853 10.196 5.704 13.116 7.698 4.649 3.176 8.981 7.12 11.959 11.876h0zm43.436-60.43c5.376 1.774 27.765 8.399 32.256 12.613 1.754 1.642 2.033 3.124 1.074 5.376-1.106 2.595-2.777 4.749-4.976 6.128-5.056 3.172-24.335 16.458-59.87 20.552-6.639.696-11.487-.371-14.785-.526-2.545-.118-4.801-.905-7.215-1.02-4.171-.193-7.693-2.428-11.527-3.688l-78.243-24.493c-1.911-.652-3.869-1.181-5.794-1.797-7.343-2.369-14.258-7.592-21.494-10.279 17.515 2.294 26.843 2.464 33.885 1.849 6.055-.53 17.456-.129 21.275-9.303 2.74-6.573-7.771-13.163-10.254-14.743 3.758.541 5.986 1 8.366 1.437l26.97 5.012c11.789 1.894 56.023 8.303 66.472 8.361 8.245.045 16.109 1.962 23.86 4.521h0zm78.112-39.536c-1.298 3.157-3.435 5.644-6.002 7.76-5.923 4.894-26.687 18.465-56.48 21.672-8.73.937-17.115 3.859-25.962 3.879-5.725.012-11.407-.635-17.104-.905-8.623-.408-70.081-9.274-80.535-11.411-5.9-1.206-11.76-2.892-17.964-3.008l8.314-2.029c19.406-4.768 29.725-9.481 34.579-17.39 1.108-1.81 1.277-1.462 1.467-2.561 12.537.143 138.974-5.038 148.621-4.325 1.173.088 6.7 1.179 9.412 3.029 2.325 1.587 2.732 2.682 1.654 5.289h0z"/><path d="M1.443 132.215c1.052 1.916 2.088 4.033 3.749 5.647 16.73 14.771 30.872 20.758 66.711 26.567 4.467.716 8.96 1.258 14.336 2-5.783 2.567-35.527 11.596-39.187 14.47-2.903 2.282-2.43 8.484.561 11.687 5.323 5.685 39.854 28.905 84.959 23.79 1.086-.124 2.127-.3 4.038-.3-3.099 1.884-13.124 12.334-14.681 15.29-1.375 2.605-1.25 5.767-.096 8.359 2.01 4.518 5.161 8.469 10.519 10.004 3.402.977 27.268 7.576 64.761-.492-5.881 7.989-6.602 16.736-7.795 23.467-.564 3.202-.599 10.073 6.209 11.405 10.169 1.992 44.28-2.843 62.159-15.454-.528 1.803-.793 2.781-1.149 4.195-1.521 6.004-1.867 11.002-1.899 16.818-.03 5.84-.8 9.344 8.003 9.87 15.666.941 32.965-10.088 44.872-20.91-1.499 4.651-2.647 8.725-3.614 13.184-1.114 5.159-2.053 9.977-1.321 14.97.679 4.609 7.639 7.729 12.354 6.421 15.788-4.39 36.329-27.866 39.987-31.725-.496 3.536-2.036 6.684-1.962 9.635.215 8.296.017 16.782 6.163 20.895 1.09.725 7.437 3.15 11.657 1.239 7.468-2.643 21.403-18.725 22.863-19.849.34 5.105.247 9.348.786 14.278.399 3.662 1.95 6.185 5.157 7.644 2.329 1.056 8.016 1.503 10.384.412 15.035-6.913 20.326-23.028 25.379-27.917 0 2.416.088 4.242-.016 6.052-.367 6.373-.674 10.426 2.76 15.843 3.009 4.75 10.107 3.308 13.138 1.53 4.229-2.478 7.235-6.412 10.232-10.259 2.886-3.705 7.289-8.676 10.519-12.607.989 4.316 2.109 17.217 11.183 19.991 2.584 1.114 15.336-.499 19.615-13.511.991-3.016 4.202-10.198 5.453-11.704 1.474 12.28 3.312 14.173 6.391 17.581 2.308 2.549 7.1 2.842 9.605.335 4.469-4.471 5.727-10.749 7.687-16.505 1.756-5.149 7.875-47.056 6.676-52.468-.32-1.441.214-2.849.767-4.069 7.896-15.577.886-65.537.792-66.411 2.065.656 6.833 10.443 8.696 13.75 1.858 3.301 2.654 6.845 3.373 10.459 1.453 7.328 10.242 53.409 10.451 60.27.194 6.301-.255 12.891-.783 19.159-.367 4.376-8.693 34.391-9.767 45.711-2.336 24.611-1.801 37.429-1.801 37.429l62.153.362v-2.297l-59.169-.341s-.651-10.734 1.092-28.565c1.48-15.166 8.342-38.623 9.354-46.485.776-6.004 1.969-11.933 1.787-18.038-.844-27.78-9.409-58.459-11.198-66.781-.423-1.958-1.714-8.853-2.552-10.48-2.085-4.022-5.365-13.336-9.859-16.816-7.076-4.803-15.076-4.128-22.321-1.647-5.377 1.845-10.956 3.047-16.342 4.826-7.515 2.476-15.631 3.333-23.677 3.556-1.782.05-3.575.084-5.21.961-5.944 3.197-11.729 1.7-17.098-1.19-3.322-1.79-6.69-3.088-10.316-3.645-18.592-3.158-29.504-8.651-30.456-9.004-4.793-1.781-8.981-4.452-12.9-7.771-7.554-7.448-20.583-10.366-25.915-9.933-1.13.096-2.303.019-3.424-.173-6.434-1.103-12.653-.817-18.437 2.612a15.08 15.08 0 0 1-5.726 2.001c-.952.128-1.852-.073-2.21-1.065-.288-.796.148-1.518.757-2.02 1.564-1.294 3.171-2.601 5.124-3.207 1.435-.441 1.591-1.376 1.661-2.601.12-2.21-1.294-3.34-3.012-3.922-7.071-2.392-14.002-5.42-21.67-5.424-2.746 0-7.849-.242-8.294-1.135-.458-.911 3.491-1.821 5.294-2.596 3.783-1.626 7.394-2.537 11.406-1.573 7.567 1.822 15.35 1.734 23.031 2.511 3.384.338 6.885-.499 10.203-.319 5.105.279 70.761 10.939 92.693 19.162 1.26.488 2.59.423 3.565-.579 14.059-9.842 39.474-20.829 60.426-16.408 2.754.303 4.645-.682 6.566-2.182 10.956-9.497 23.181-10.748 30.043-11.969 5.996-1.07 11.94-2.529 17.297-5.673 5.175-3.039 8.369-7.515 8.759-13.509.305-4.672-.41-11.992-.88-16.647-.346-3.423.871-5.015-3.672-6.693-.922-.338-1.328-1.488-1.796-2.402-1.044-2.033-2.425-3.915-3.204-6.058-1.524-4.2-1.234-7.927-1.142-12.31.072-3.347 3.82-5.062 5.854-4.541.385-2.174.538-3.966.941-6.086 1.675-8.814 3.748-17.018 10.24-23.692 4.19-4.43 9.419-6.19 14.387-6.203V-.239c-5.743-.162-11.557 1.716-15.67 6.373-5.862 6.637-9.657 14.244-11.23 23.267-.284 1.634-.034 4.532-.528 6.38-4.747-1.419-7.532 6.151-6.466 10.668.827 5.926 1.434 11.061 4.733 15.991.568.845.883 2.102 1.805 2.389 4.265 1.315 3.488 2.384 3.795 5.683.549 5.85.442 14.224-.334 20.02-.533 3.981-3.024 6.453-6.283 8.098-3.491 1.758-7.286 2.743-11.122 3.689-7.515 1.851-23.103 2.415-34.597 12.062-1.126 1.204-2.425 2.253-3.696 3.307-.788.657-1.706 1.183-2.794.923-21.575-7.541-54.51 8.664-63.565 16.728-10.896-7.213-70.649-15.904-86.559-18.877-4.446-.832-8.903-.452-13.34-.483-8.631-.055-17.184-.183-25.717-2.075-5.072-1.129-10.433-.716-15.194 2.014-3.415 1.956-7.106 1.594-10.785 1.676l-146.203 2.348c-.848.053-1.335.153-2.505.564-2.529.89-3.179 3.392-3.179 3.392l-4.894.235c-6.34.268-129.318-4.823-140.148-4.218-4.798.265-7.791.424-12.591 2.96-3.545 1.876-5.859 5.877-3.96 9.34h0zm341.345-6.834l-16.457 3.268-12.787 2.916c-13.24 3.052-75.457 11.762-79.336 12.15-6.197.619-12.346 1.342-18.305 3.15-2.176.66-4.219.659-6.341.008-1.332-.409-2.677-.845-4.027-1.086-20.166-3.601-31.188-8.706-38.415-16.656-2.882-3.71-1.985-6.199 1.854-6.808.501-.079 127.506-1.461 148.581-2.429.808-.038 2.055-.644 2.282.582.415 2.271 2.05 1.802 3.512 1.92 3.914.326 7.791.909 11.745.904 2.45-.007 4.835.935 7.694 2.081h0zm2.761 13.989c.037.725-1.087.926-1.8 1.202-11.352 4.393-80.044 27.926-83.206 28.746-5.8 1.5-11.825 1.415-17.711 2.451-25.294 4.433-43.444-2.479-42.684-9.199.527-4.671 7.676-8.854 12.039-12.39.809-.923 14.552-3.615 20.888-3.87 12.361-.495 85.046-13.224 92.218-15.288 6.352-1.823 12.86-3.082 19.475-3.422 2.826-.145 5.812.032 8.098 2.335-.228.65-.236.808-.317.878-2.805 2.453-7.249 3.523-7 8.557h0zm33.572-2.14c-3.339 3.67-7.216 5.888-10.43 8.461-5.444 4.356-46.398 31.202-49.467 33.383-7.531 5.37-15.264 9.979-24.513 11.983-8.838 1.913-17.541 3.857-26.683 2.664-4.464-.582-8.715-1.54-12.712-3.618-2.187-1.138-3.631-2.855-3.875-5.284-.297-2.981.582-5.752 2.038-8.357 1.233-2.216 2.988-3.344 5.549-4.02 8.089-2.134 80.013-26.798 88.695-31.262.484-.249.948-.123 1.455.024 2.526.749 4.716-.24 6.889-1.362 1.348-.701 2.676-1.567 4.124-1.941 5.971-1.542 12.037-1.119 18.93-.671h0zm20.794 8.277c-.358 1.101-31.713 31.523-38.267 37.496-8.788 8.009-17.06 16.369-28.275 21.571-10.502 4.869-20.989 8.424-32.163 8.742-4.586.134-7.099-4.381-7.317-8.732-.067-1.459.388-2.784 1.063-4.002 3.541-8.138 17.549-13.738 20.929-16.033 6.369-4.332 57.99-39.229 65.808-47.131 6.617.286 16.015 4.899 18.222 8.089h0zm17.514 10.21c-4.756 7.011-35.17 40.677-44.965 51.45-1.765 1.64-3.027 3.704-5.018 5.155-4.315 3.145-8.979 6.292-13.722 8.672-4.684 2.357-8.887 4.949-14.2 5.153-2.444.093-6.36-2.083-6.665-4.263-.832-5.955 2.24-11.658 6.302-16.201 2.819-3.157 6.428-5.325 9.518-8.126 8.018-7.268 51.023-48.579 53.366-50.432 3.416 2.451 6.245 5.412 15.384 8.592h0zm17.747 6.47c-.603 1.491-36.994 61.132-38.544 62.617-5.88 5.635-11.88 10.194-19.979 12.724-13.627 4.254-8.645-17.821-4.441-25.517 5.334-5.426 43.306-49.997 47.082-55.576 5.585 2.864 11.465 4.75 15.882 5.752h0zm21.906 5.95l-24.33 52.808c-.77 1.437-1.464 2.884-2.527 4.213-5.173 6.5-11.006 12.305-17.704 17.069-8.415 5.986-19.402 2.833-10.695-17.913 1.889-3.012 2.945-6.211 4.781-9.241l31.555-52.335c10.797.286 18.92 5.399 18.92 5.399h0zm19.89.429c-.311 1.647-15.236 50.048-17.412 57.711-2.217 7.804-5.595 12.5-12.178 16.267-4.844 2.769-10.376 4.327-12.728-8.336-.756-4.047-2.286-7.397-.097-10.925 3.279-5.288 22.514-48.59 25.191-54.214 6.629 2.332 11.737 1.95 17.224-.503h0zm23.09-3.255c-.982 4.686-8.972 44.838-11.186 60.924-.143 1.038-.407 2.139-1.205 2.741-5.262 7.929-10.693 11.321-13.374 12.829-1.939 1.092-3.474 1.239-5.527-.301-2.095-1.572-3.576-3.508-5.129-5.474-3.377-4.274-2.284-7.582-.847-13.384.561-1.138 16.187-51.812 17.336-54.503 6.114.093 13.542-1.613 19.932-2.832h0zm17.379-4.126l-2.647 56.646c-.401 4.431-2.646 8.247-4.5 12.1-3.484 7.242-4.494 7.996-8.283 10.318-1.744 1.071-5.426.88-7.133-1.463-3.079-4.22-4.156-7.842-3.668-12.14.757-6.676 11.35-61.783 11.35-61.783l14.881-3.678h0zm17.057 70.944c-2.19 2.44-5.125 4.563-8.376 4.776-5.352.352-6.88-5.126-8.982-11.019-.227-.636-.638-3.793-.66-4.371-.216-6.514 3.685-60.927 3.685-60.927s8.551-4.753 16.91-.214c.649 2.691 6.637 39.064 3.217 59.843-.887 5.415-2.451 7.516-5.794 11.912h0zm-24.145 46.181c1.266-4.576 6.185-35.859 6.4-39.556.122-2.073-.062-4.331.419-7.388 5.381 10.956 11.305 9.075 19.619 1.145.126 1.464.251 3.568.276 4.35.223 7.124-5.061 40.688-7.505 48.268-2.136 6.62-5.986 15.836-9.731 15.315-3.104-.431-4.696-1.013-8.361-9.842-.877-3.262-1.998-9.095-1.117-12.292h0zm-35.238 5.126c.384-1.675 1.316-3.125 1.901-4.854 4.756-14.079 9.411-28.187 12.445-42.767.11-.534.193-1.011.574-2.347 1.229 2.746 2.537 6.144 4.935 8.056 1.27 1.009 4.583 2.878 7.647.764 5.857-4.046 5.631-4.111 10.381-12.769.571-1.043 1.043-3.801 1.879-5.128.486 1.183.796 3.66.764 4.74-.181 5.845-6.286 46.748-9.809 52.834-.585 1.011-5.117 11.036-6.674 15.245-6.156 10.233-13.89 9.735-16.496 8.684-6.592-2.681-8.551-18.063-7.547-22.458h0zm-37.339 4.427c.514-4.081.599-7.178 2.674-10.33 2.505-4.349 4.333-8.179 6.142-12.537 2.437-5.855 5.286-11.648 8.472-17.147 1.476-2.548 4.311-10.872 5.144-13.452 3.139 4.793 5.889 8.295 9.744 10.249.975.491 1.745.629 2.844.402 4.09-.859 7.092-3.326 9.768-6.282 1.686-1.858 3.766-4.485 5.69-7.146l-1.473 6.196c-1.788 6.484-10.337 35.71-13.515 43.605-.188.471-.403.955-.706 1.35-5.122 6.703-9.993 13.629-15.783 20.425-2.195 2.573-4.574 4.951-7.43 6.607-2.264 1.309-6.622 2.345-9.522-1.46-2.051-2.694-3.167-11.528-2.049-20.48h0zm-41.437 7.064c-.385-2.243-.014-3.773 1.529-5.481 2.797-3.103 4.617-6.713 6.78-10.261 7.953-13.019 15.314-26.455 22.051-40.12 1.453-2.942 2.742-5.693 4.628-9.042.821 2.749 1.189 5.006 1.939 7.622 2.328 8.138 4.828 10.453 12.862 7.986 5.458-1.679 7.131-4.305 9.758-6.863 0 .993-6.871 15.818-9.772 22.284-1.419 3.153-9.673 19.594-12.885 24.413-2.813 4.218-11.732 21.716-21.848 27.254-8.224 4.505-14.438.559-15.376-6.176-.578-4.147-.115-7.404.334-11.616h0zm-37.816-16.487c1.308-3.311 30.939-37.248 35.744-45.802.622-1.105 2.006-3.185 3.534-4.587-.736 4.427-1.068 8.031-.286 12.262.731 3.945 3.312 9.409 14.49 4.683 5.637-2.384 14.629-12.815 15.301-12.556-.694 1.804-27.4 53.061-37.497 61.082-3.367 2.676-13.09 14.284-17.632 16.399-7.435 3.042-12.422.771-14.231-3.362-.665-1.509-2.073-4.759-2.438-14.425-.396-4.665 1.398-9.609 3.015-13.694h0zm-50.358 5.636c2.816-10.799 8.671-14.192 9.343-14.945 10.108-11.358 40.898-42.812 45.247-48.105l5.906-7.051c-1.777 6.378-12.788 35.208 15.162 23.458 1.693-.71 3.788-2.567 6.398-3.712-1.082 2.676-3.544 5.638-4.959 7.539-5.31 7.132-21.845 27.367-24.596 30.51-1.249 1.432-32.666 32.569-36.515 34.741-7.693 4.352-16.439 7.81-19.298 1.267-1.829-4.181-.247-8.934.588-13.016.735-3.601 1.883-7.101 2.724-10.686h0zm-49.511-9.142c.529-3.814 3.047-9.177 5.747-11.013 5.559-3.772 38.014-31.794 43.684-36.485 5.568-4.6 11.367-8.923 16.367-14.174 2.646-2.787 5.8-4.642 9.939-5.323-2.731 4.193-3.775 9.041-3.79 13.345-.019 4.944 4.648 7.964 9.51 7.025 5.865-1.136 10.942-3.376 16.275-6.253 1.291-.701 2.678-2.098 5.59-3.246-3.102 3.813-28.178 29.702-36.344 38.799-3.559 3.962-6.822 8.192-10.892 11.593-5.055 4.225-10.014 9.007-15.543 12.611-19.321 14.026-24.204 15.16-35.364 14.76-3.847-.14-7.307-.051-7.037-4.912.259-4.643 1.554-14.519 1.858-16.727h0zm-56.319-27.27c5.891-2.948 74.357-39.345 85.11-46.821 2.175-1.511 5.831-5.135 9.016-6.231-2.231 2.291-3.802 5.623-4.409 7.523-1.155 3.597.138 9.212 2.53 11.028 1.861 1.415 5.058 2.645 7.592 2.528 6.844-.303 13.341-3.301 20.97-4.373l-4.818 4.268c-9.411 7.972-51.23 43.978-64.147 52.203-1.709 1.091-3.341 2.374-5.183 3.161-25.423 11.305-42.648 12.659-52.075 11.164-3.661-.584-4.71-1.967-5.044-5.602-.123-1.389.181-9.474 4.131-20.114.808-2.189 4.397-7.768 6.327-8.734h0zm-65.453-28.578c2.92-1.994 5.937-5.845 13.114-7.698 6.617-1.284 60.056-17.893 72.174-22.453 5.903-2.22 11.877-3.987 17.594-7.022 3.105-1.647 6.913-3.226 10.772-4.945-.21 1.489-.887 3.55-.981 4.78-.529 6.907 2.345 9.91 8.735 12.52 10.893 4.444 32.086.717 33.471.692-.693.644-15.439 10.502-22.413 14.905-5.34 3.373-58.035 31.607-72.294 35.928-42.306 10.174-65.952 2.96-70.904-3.53-2.645-3.474-3.34-7.495-1.227-11.301 2.978-4.756 7.31-8.7 11.959-11.876h0zm-31.535-53.075c10.448-.058 54.682-6.467 66.471-8.361 9.024-1.454 17.976-3.375 26.97-5.012 2.381-.437 4.609-.896 8.366-1.437-2.483 1.58-12.994 8.17-10.253 14.743 3.819 9.174 15.219 8.773 21.274 9.303 7.043.615 16.371.445 33.886-1.849-7.237 2.687-14.151 7.91-21.494 10.279l-5.795 1.797c-6.939 2.373-70.326 21.898-78.243 24.493-3.834 1.26-7.355 3.495-11.526 3.688-2.414.115-4.672.902-7.216 1.02-3.297.155-8.146 1.222-14.783.526-35.536-4.094-54.816-17.38-59.871-20.552-2.198-1.379-3.871-3.533-4.976-6.128-.959-2.252-.679-3.734 1.075-5.376 4.489-4.214 26.878-10.839 32.254-12.613 7.751-2.559 15.615-4.476 23.861-4.521h0zM5.027 125.707c2.713-1.85 8.241-2.941 9.413-3.029 9.649-.713 136.084 4.468 148.623 4.325.187 1.099.358.751 1.466 2.561 4.854 7.909 15.173 12.622 34.578 17.39l8.314 2.029c-6.203.116-12.063 1.802-17.963 3.008-10.454 2.137-71.911 11.003-80.534 11.411-5.699.27-11.381.917-17.106.905-8.845-.02-17.232-2.942-25.962-3.879-29.792-3.207-50.557-16.778-56.481-21.672-2.566-2.116-4.703-4.603-6.002-7.76-1.075-2.607-.669-3.702 1.654-5.289h0z"/></g></svg>